<svg xmlns="http://www.w3.org/2000/svg" width="520" height="104" viewBox="0 0 520 104"><title>CircuitKit logo horizontal light</title><g transform="translate(8 4) scale(0.28152492668621704)"><path d="M0 0 C8.19 7.55 12.98 18.4 14.13 29.39 C14.52 41.9 11.72 52.97 3.75 62.75 C3.2 63.44 2.65 64.12 2.08 64.83 C-4.93 72.66 -15.63 78.35 -26.16 78.99 C-40.06 79.33 -51.48 77.3 -62.25 67.75 C-62.6 67.11 -62.96 66.48 -63.32 65.82 C-65.33 62.6 -67.3 60.23 -71.12 59.29 C-77.07 58.54 -83.07 58.76 -89.06 58.86 C-91.03 58.87 -93 58.87 -94.97 58.88 C-99.1 58.89 -103.22 58.92 -107.35 58.98 C-112.6 59.05 -117.85 59.08 -123.09 59.09 C-127.17 59.1 -131.24 59.12 -135.31 59.15 C-137.24 59.17 -139.17 59.18 -141.1 59.19 C-170.57 59.36 -195.13 67.15 -216.56 88 C-233.84 106.36 -241.69 130.92 -241.25 155.75 C-240.2 182.44 -228.47 206.6 -209.32 225.08 C-192.44 240.19 -170.78 247.74 -148.24 247.99 C-147.81 248 -147.81 248 -145.6 248.03 C-136.51 248.16 -127.42 248.21 -118.34 248.26 C-114.03 248.29 -109.73 248.34 -105.42 248.41 C-100.21 248.49 -95 248.53 -89.78 248.55 C-87.8 248.56 -85.82 248.59 -83.84 248.63 C-66.44 248.96 -66.44 248.96 -60.72 243.85 C-59.56 242.49 -58.4 241.12 -57.25 239.75 C-47.78 233.56 -36.56 232.32 -25.54 234.21 C-13.52 237.41 -3.55 244.93 2.69 255.67 C7.6 265.29 9.18 276.66 6.6 287.21 C2.18 300.38 -4.82 309.55 -17.25 315.75 C-17.59 315.92 -17.59 315.92 -19.29 316.79 C-28.15 320.47 -40.2 320.15 -49.25 317.19 C-55.16 314.66 -60.92 310.85 -64.81 305.67 C-68.46 302.8 -71.71 303.2 -76.23 303.25 C-76.68 303.25 -76.68 303.25 -78.98 303.23 C-80.96 303.23 -82.93 303.23 -84.9 303.23 C-88.04 303.25 -91.18 303.23 -94.32 303.22 C-101 303.19 -107.69 303.19 -114.38 303.19 C-122.08 303.18 -129.78 303.17 -137.49 303.13 C-140.55 303.12 -143.61 303.13 -146.68 303.14 C-161.48 303.12 -176.26 302.11 -190.31 297.06 C-191.04 296.81 -191.77 296.55 -192.53 296.29 C-231.59 282.28 -262.72 253.93 -280.88 216.69 C-297.14 182.14 -299.92 139.82 -286.98 103.74 C-286.74 103.09 -286.5 102.43 -286.25 101.75 C-286 101.07 -285.76 100.38 -285.5 99.68 C-279.64 83.8 -271.56 69.41 -260.25 56.75 C-259.49 55.88 -258.72 55 -257.93 54.11 C-255.74 51.62 -253.5 49.18 -251.25 46.75 C-250.7 46.15 -250.15 45.54 -249.59 44.92 C-225.55 19.58 -189.64 5.65 -155.25 3.75 C-149.42 3.61 -143.58 3.65 -137.74 3.67 C-132.81 3.68 -127.88 3.66 -122.95 3.65 C-116.71 3.63 -110.46 3.62 -104.22 3.65 C-99.14 3.67 -94.06 3.66 -88.99 3.63 C-87.06 3.62 -85.14 3.63 -83.21 3.64 C-66.32 3.8 -66.32 3.8 -61.2 -0.68 C-60.2 -1.86 -59.21 -3.05 -58.25 -4.25 C-38.76 -16.54 -17.68 -14.2 0 0 Z M-50.25 18.75 C-54.84 25.24 -54.94 32 -54.25 39.75 C-52.48 46.45 -47.79 50.85 -42.25 54.75 C-36.87 57.38 -30.86 57.64 -25.07 56.21 C-17.92 53.75 -13.74 49.95 -10.27 43.24 C-7.59 36.68 -7.6 30.43 -10.18 23.85 C-13.06 18.2 -17.09 14 -22.91 11.41 C-33.62 8.4 -42.45 11.3 -50.25 18.75 Z M-50.69 262.25 C-55.87 268.75 -55.9 274.59 -55.25 282.75 C-53.16 288.92 -48.61 293.18 -43.25 296.75 C-37.36 298.71 -30.65 298.77 -24.94 296.19 C-19.58 293.07 -16.13 288.99 -13.88 283.25 C-12.41 275.02 -13.56 268.98 -18 262 C-22.71 257.29 -27.87 255.08 -34.44 254.44 C-41.06 254.98 -46.26 257.23 -50.69 262.25 Z " fill="#141414" transform="translate(299.25,17.25)"/></g><path d="M158.67 84.39Q150.40 84.39 144.14 80.52Q137.88 76.65 134.40 69.43Q130.91 62.21 130.91 52.20Q130.91 42.20 134.40 34.93Q137.88 27.67 144.14 23.75Q150.40 19.84 158.67 19.84Q169.89 19.84 176.07 25.49Q182.25 31.15 184.16 40.89L176.24 41.41Q174.94 34.80 170.67 30.97Q166.41 27.15 158.67 27.15Q152.75 27.15 148.27 30.15Q143.79 33.15 141.27 38.76Q138.75 44.37 138.75 52.20Q138.75 60.03 141.27 65.60Q143.79 71.17 148.27 74.13Q152.75 77.08 158.67 77.08Q166.76 77.08 171.20 72.86Q175.63 68.64 176.76 61.42L184.68 61.95Q183.55 68.64 180.24 73.69Q176.94 78.74 171.50 81.56Q166.06 84.39 158.67 84.39M202.60 83L195.30 83L195.30 36.89L202.60 36.89L202.60 83M202.78 29.67L195.12 29.67L195.12 21.14L202.78 21.14L202.78 29.67M224.35 83L217.05 83L217.05 36.89L223.48 36.89L223.74 45.42Q226.09 36.89 234.71 36.89L239.23 36.89L239.23 43.85L234.79 43.85Q224.35 43.85 224.35 55.16L224.35 83M264.55 84.04Q258.11 84.04 253.37 81.09Q248.63 78.13 246.02 72.69Q243.41 67.25 243.41 59.94Q243.41 52.64 246.02 47.24Q248.63 41.85 253.37 38.85Q258.11 35.85 264.55 35.85Q272.55 35.85 277.77 39.98Q282.99 44.11 284.12 51.85L276.47 52.38Q275.68 47.76 272.46 45.29Q269.25 42.81 264.55 42.81Q258.20 42.81 254.63 47.37Q251.06 51.94 251.06 59.94Q251.06 67.95 254.63 72.52Q258.20 77.08 264.55 77.08Q269.25 77.08 272.46 74.47Q275.68 71.86 276.47 66.64L284.12 67.17Q282.99 74.82 277.77 79.43Q272.55 84.04 264.55 84.04M308.31 84.04Q301.44 84.04 297.30 79.39Q293.17 74.73 293.17 66.56L293.17 36.89L300.48 36.89L300.48 64.56Q300.48 71.25 302.87 74.43Q305.26 77.61 310.22 77.61Q315.70 77.61 318.84 74.08Q321.97 70.56 321.97 64.38L321.97 36.89L329.28 36.89L329.28 83L322.32 83L322.32 75.52Q318.49 84.04 308.31 84.04M349.20 83L341.89 83L341.89 36.89L349.20 36.89L349.20 83M349.37 29.67L341.72 29.67L341.72 21.14L349.37 21.14L349.37 29.67M383.82 83L376.52 83Q370.25 83 367.25 80.13Q364.25 77.26 364.25 71.17L364.25 43.33L357.46 43.33L357.46 36.89L364.25 36.89L364.25 26.10L371.56 26.10L371.56 36.89L383.82 36.89L383.82 43.33L371.56 43.33L371.56 70.99Q371.56 74.13 372.95 75.34Q374.34 76.56 377.21 76.56L383.82 76.56L383.82 83M402.27 83L394.79 83L394.79 21.23L402.27 21.23L402.27 51.94L430.02 21.23L439.50 21.23L415.32 48.03L441.16 83L432.02 83L410.27 53.59L402.27 62.38L402.27 83M455.86 83L448.55 83L448.55 36.89L455.86 36.89L455.86 83M456.03 29.67L448.38 29.67L448.38 21.14L456.03 21.14L456.03 29.67M490.49 83L483.18 83Q476.91 83 473.91 80.13Q470.91 77.26 470.91 71.17L470.91 43.33L464.13 43.33L464.13 36.89L470.91 36.89L470.91 26.10L478.22 26.10L478.22 36.89L490.49 36.89L490.49 43.33L478.22 43.33L478.22 70.99Q478.22 74.13 479.61 75.34Q481 76.56 483.87 76.56L490.49 76.56" fill="#141414"/></svg>
