<svg xmlns="http://www.w3.org/2000/svg" width="1500" height="500" viewBox="0 0 1500 500"><title>CircuitKit social banner</title><path fill="#141414" d="M0 0H1500V500H0Z"/><g transform="translate(155 78) scale(0.7302052785923754)"><path d="M0 0 C8.19 7.55 12.98 18.4 14.13 29.39 C14.52 41.9 11.72 52.97 3.75 62.75 C3.2 63.44 2.65 64.12 2.08 64.83 C-4.93 72.66 -15.63 78.35 -26.16 78.99 C-40.06 79.33 -51.48 77.3 -62.25 67.75 C-62.6 67.11 -62.96 66.48 -63.32 65.82 C-65.33 62.6 -67.3 60.23 -71.12 59.29 C-77.07 58.54 -83.07 58.76 -89.06 58.86 C-91.03 58.87 -93 58.87 -94.97 58.88 C-99.1 58.89 -103.22 58.92 -107.35 58.98 C-112.6 59.05 -117.85 59.08 -123.09 59.09 C-127.17 59.1 -131.24 59.12 -135.31 59.15 C-137.24 59.17 -139.17 59.18 -141.1 59.19 C-170.57 59.36 -195.13 67.15 -216.56 88 C-233.84 106.36 -241.69 130.92 -241.25 155.75 C-240.2 182.44 -228.47 206.6 -209.32 225.08 C-192.44 240.19 -170.78 247.74 -148.24 247.99 C-147.81 248 -147.81 248 -145.6 248.03 C-136.51 248.16 -127.42 248.21 -118.34 248.26 C-114.03 248.29 -109.73 248.34 -105.42 248.41 C-100.21 248.49 -95 248.53 -89.78 248.55 C-87.8 248.56 -85.82 248.59 -83.84 248.63 C-66.44 248.96 -66.44 248.96 -60.72 243.85 C-59.56 242.49 -58.4 241.12 -57.25 239.75 C-47.78 233.56 -36.56 232.32 -25.54 234.21 C-13.52 237.41 -3.55 244.93 2.69 255.67 C7.6 265.29 9.18 276.66 6.6 287.21 C2.18 300.38 -4.82 309.55 -17.25 315.75 C-17.59 315.92 -17.59 315.92 -19.29 316.79 C-28.15 320.47 -40.2 320.15 -49.25 317.19 C-55.16 314.66 -60.92 310.85 -64.81 305.67 C-68.46 302.8 -71.71 303.2 -76.23 303.25 C-76.68 303.25 -76.68 303.25 -78.98 303.23 C-80.96 303.23 -82.93 303.23 -84.9 303.23 C-88.04 303.25 -91.18 303.23 -94.32 303.22 C-101 303.19 -107.69 303.19 -114.38 303.19 C-122.08 303.18 -129.78 303.17 -137.49 303.13 C-140.55 303.12 -143.61 303.13 -146.68 303.14 C-161.48 303.12 -176.26 302.11 -190.31 297.06 C-191.04 296.81 -191.77 296.55 -192.53 296.29 C-231.59 282.28 -262.72 253.93 -280.88 216.69 C-297.14 182.14 -299.92 139.82 -286.98 103.74 C-286.74 103.09 -286.5 102.43 -286.25 101.75 C-286 101.07 -285.76 100.38 -285.5 99.68 C-279.64 83.8 -271.56 69.41 -260.25 56.75 C-259.49 55.88 -258.72 55 -257.93 54.11 C-255.74 51.62 -253.5 49.18 -251.25 46.75 C-250.7 46.15 -250.15 45.54 -249.59 44.92 C-225.55 19.58 -189.64 5.65 -155.25 3.75 C-149.42 3.61 -143.58 3.65 -137.74 3.67 C-132.81 3.68 -127.88 3.66 -122.95 3.65 C-116.71 3.63 -110.46 3.62 -104.22 3.65 C-99.14 3.67 -94.06 3.66 -88.99 3.63 C-87.06 3.62 -85.14 3.63 -83.21 3.64 C-66.32 3.8 -66.32 3.8 -61.2 -0.68 C-60.2 -1.86 -59.21 -3.05 -58.25 -4.25 C-38.76 -16.54 -17.68 -14.2 0 0 Z M-50.25 18.75 C-54.84 25.24 -54.94 32 -54.25 39.75 C-52.48 46.45 -47.79 50.85 -42.25 54.75 C-36.87 57.38 -30.86 57.64 -25.07 56.21 C-17.92 53.75 -13.74 49.95 -10.27 43.24 C-7.59 36.68 -7.6 30.43 -10.18 23.85 C-13.06 18.2 -17.09 14 -22.91 11.41 C-33.62 8.4 -42.45 11.3 -50.25 18.75 Z M-50.69 262.25 C-55.87 268.75 -55.9 274.59 -55.25 282.75 C-53.16 288.92 -48.61 293.18 -43.25 296.75 C-37.36 298.71 -30.65 298.77 -24.94 296.19 C-19.58 293.07 -16.13 288.99 -13.88 283.25 C-12.41 275.02 -13.56 268.98 -18 262 C-22.71 257.29 -27.87 255.08 -34.44 254.44 C-41.06 254.98 -46.26 257.23 -50.69 262.25 Z " fill="#fafafa" transform="translate(299.25,17.25)"/></g><path d="M517.21 189.33Q509.33 189.33 503.35 185.63Q497.38 181.94 494.06 175.05Q490.74 168.16 490.74 158.62Q490.74 149.07 494.06 142.14Q497.38 135.21 503.35 131.48Q509.33 127.74 517.21 127.74Q527.92 127.74 533.81 133.14Q539.71 138.53 541.53 147.83L533.98 148.33Q532.73 142.02 528.67 138.37Q524.60 134.71 517.21 134.71Q511.57 134.71 507.29 137.58Q503.02 140.44 500.61 145.79Q498.20 151.15 498.20 158.62Q498.20 166.09 500.61 171.40Q503.02 176.71 507.29 179.53Q511.57 182.36 517.21 182.36Q524.93 182.36 529.16 178.33Q533.40 174.31 534.48 167.42L542.03 167.91Q540.95 174.31 537.80 179.12Q534.64 183.93 529.45 186.63Q524.27 189.33 517.21 189.33M559.13 188L552.16 188L552.16 144.01L559.13 144.01L559.13 188M559.29 137.12L551.99 137.12L551.99 128.99L559.29 128.99L559.29 137.12M579.88 188L572.91 188L572.91 144.01L579.05 144.01L579.30 152.14Q581.54 144.01 589.75 144.01L594.07 144.01L594.07 150.65L589.84 150.65Q579.88 150.65 579.88 161.44L579.88 188M618.22 189Q612.08 189 607.56 186.17Q603.03 183.35 600.54 178.16Q598.05 172.98 598.05 166Q598.05 159.03 600.54 153.89Q603.03 148.74 607.56 145.88Q612.08 143.01 618.22 143.01Q625.86 143.01 630.84 146.96Q635.82 150.90 636.90 158.29L629.59 158.78Q628.85 154.38 625.78 152.02Q622.71 149.65 618.22 149.65Q612.16 149.65 608.76 154.01Q605.36 158.37 605.36 166Q605.36 173.64 608.76 178Q612.16 182.36 618.22 182.36Q622.71 182.36 625.78 179.87Q628.85 177.38 629.59 172.40L636.90 172.89Q635.82 180.20 630.84 184.60Q625.86 189 618.22 189M659.97 189Q653.41 189 649.47 184.56Q645.53 180.12 645.53 172.31L645.53 144.01L652.50 144.01L652.50 170.40Q652.50 176.79 654.78 179.82Q657.07 182.85 661.80 182.85Q667.03 182.85 670.01 179.49Q673 176.13 673 170.24L673 144.01L679.98 144.01L679.98 188L673.34 188L673.34 180.86Q669.68 189 659.97 189M698.98 188L692.01 188L692.01 144.01L698.98 144.01L698.98 188M699.15 137.12L691.84 137.12L691.84 128.99L699.15 128.99L699.15 137.12M732.02 188L725.04 188Q719.07 188 716.20 185.26Q713.34 182.52 713.34 176.71L713.34 150.15L706.87 150.15L706.87 144.01L713.34 144.01L713.34 133.72L720.31 133.72L720.31 144.01L732.02 144.01L732.02 150.15L720.31 150.15L720.31 176.55Q720.31 179.53 721.64 180.70Q722.97 181.86 725.71 181.86L732.02 181.86L732.02 188M777.83 189Q772.11 189 767.91 186.17Q763.72 183.35 761.48 178.21Q759.24 173.06 759.24 166Q759.24 158.95 761.48 153.80Q763.72 148.66 767.91 145.84Q772.11 143.01 777.83 143.01Q782.23 143.01 785.88 144.88Q789.53 146.75 791.36 150.15L791.36 129.07L798.33 129.07L798.33 188L792.02 188L791.78 181.36Q789.95 184.93 786.21 186.96Q782.48 189 777.83 189M779.24 182.36Q785.14 182.36 788.25 177.96Q791.36 173.56 791.36 166Q791.36 158.37 788.25 154.01Q785.14 149.65 779.24 149.65Q773.43 149.65 769.99 154.01Q766.54 158.37 766.54 166Q766.54 173.56 769.99 177.96Q773.43 182.36 779.24 182.36M816.92 188L809.95 188L809.95 144.01L816.92 144.01L816.92 188M817.09 137.12L809.79 137.12L809.79 128.99L817.09 128.99L817.09 137.12M841.24 189Q834.44 189 830.41 185.84Q826.39 182.69 826.39 177.04Q826.39 171.40 829.71 168.16Q833.03 164.93 840.25 163.60L855.85 160.69Q855.85 149.65 845.39 149.65Q840.83 149.65 838.17 151.69Q835.52 153.72 834.52 157.54L827.13 156.96Q828.38 150.73 833.15 146.87Q837.92 143.01 845.39 143.01Q853.86 143.01 858.34 147.79Q862.82 152.56 862.82 160.94L862.82 179.12Q862.82 181.86 865.15 181.86L866.89 181.86L866.89 188Q865.89 188.17 864.23 188.17Q860.42 188.17 858.47 186.63Q856.52 185.09 856.02 181.61L855.93 181.19Q854.27 184.60 850.21 186.80Q846.14 189 841.24 189M841.91 182.85Q848.55 182.85 852.20 179.12Q855.85 175.38 855.85 169.91L855.85 166.75L841.58 169.41Q837.09 170.24 835.39 171.94Q833.69 173.64 833.69 176.38Q833.69 179.45 835.89 181.15Q838.09 182.85 841.91 182.85M891.29 201.45Q884.24 201.45 879.26 197.96Q874.28 194.47 872.87 188.66L880.17 188.17Q881.17 191.24 883.70 193.02Q886.23 194.81 891.29 194.81Q897.27 194.81 900.46 192.40Q903.66 189.99 903.66 185.18L903.66 178.04Q902.08 181.53 898.60 183.60Q895.11 185.68 890.79 185.68Q885.23 185.68 880.88 182.94Q876.52 180.20 874.07 175.38Q871.62 170.57 871.62 164.34Q871.62 158.04 874.03 153.26Q876.44 148.49 880.71 145.75Q884.98 143.01 890.46 143.01Q895.11 143.01 898.80 145.17Q902.50 147.33 903.99 150.98L903.99 144.01L910.63 144.01L910.63 185.01Q910.63 192.73 905.53 197.09Q900.42 201.45 891.29 201.45M891.13 179.04Q896.77 179.04 900.17 175.09Q903.58 171.15 903.66 164.34Q903.83 157.54 900.34 153.60Q896.85 149.65 891.13 149.65Q885.32 149.65 882.12 153.60Q878.93 157.54 878.93 164.34Q878.93 171.15 882.20 175.09Q885.48 179.04 891.13 179.04M930.88 188L923.91 188L923.91 144.01L930.05 144.01L930.30 152.14Q932.54 144.01 940.76 144.01L945.08 144.01L945.08 150.65L940.84 150.65Q930.88 150.65 930.88 161.44L930.88 188M963.92 189Q957.11 189 953.09 185.84Q949.06 182.69 949.06 177.04Q949.06 171.40 952.38 168.16Q955.70 164.93 962.92 163.60L978.53 160.69Q978.53 149.65 968.07 149.65Q963.50 149.65 960.85 151.69Q958.19 153.72 957.19 157.54L949.81 156.96Q951.05 150.73 955.83 146.87Q960.60 143.01 968.07 143.01Q976.53 143.01 981.02 147.79Q985.50 152.56 985.50 160.94L985.50 179.12Q985.50 181.86 987.82 181.86L989.56 181.86L989.56 188Q988.57 188.17 986.91 188.17Q983.09 188.17 981.14 186.63Q979.19 185.09 978.69 181.61L978.61 181.19Q976.95 184.60 972.88 186.80Q968.81 189 963.92 189M964.58 182.85Q971.22 182.85 974.87 179.12Q978.53 175.38 978.53 169.91L978.53 166.75L964.25 169.41Q959.77 170.24 958.07 171.94Q956.36 173.64 956.36 176.38Q956.36 179.45 958.56 181.15Q960.76 182.85 964.58 182.85M1004.42 188L997.45 188L997.45 144.01L1003.84 144.01L1004.01 151.73Q1005.67 147.66 1008.90 145.34Q1012.14 143.01 1016.37 143.01Q1021.35 143.01 1024.76 145.42Q1028.16 147.83 1029.57 152.23Q1030.98 147.83 1034.30 145.42Q1037.62 143.01 1042.44 143.01Q1049.49 143.01 1053.23 147.37Q1056.96 151.73 1056.96 159.70L1056.96 188L1049.99 188L1049.99 161.19Q1049.99 149.16 1040.78 149.16Q1036.21 149.16 1033.43 152.48Q1030.65 155.80 1030.65 161.69L1030.65 188L1023.68 188L1023.68 161.69Q1023.68 155.80 1021.60 152.48Q1019.53 149.16 1014.63 149.16Q1010.07 149.16 1007.24 152.48Q1004.42 155.80 1004.42 161.69L1004.42 188M1085.26 189Q1076.22 189 1071.49 184.80Q1066.75 180.61 1066.26 174.14L1073.56 173.64Q1074.22 177.63 1076.84 179.99Q1079.45 182.36 1085.26 182.36Q1089.75 182.36 1092.19 180.90Q1094.64 179.45 1094.64 176.21Q1094.64 174.47 1093.85 173.31Q1093.07 172.15 1090.74 171.28Q1088.42 170.40 1083.94 169.57Q1077.79 168.41 1074.31 166.67Q1070.82 164.93 1069.41 162.44Q1068 159.95 1068 156.46Q1068 150.57 1072.36 146.79Q1076.71 143.01 1084.68 143.01Q1090.49 143.01 1094.19 145.05Q1097.88 147.08 1099.79 150.32Q1101.70 153.56 1102.11 157.12L1094.81 157.62Q1094.48 154.47 1092.19 152.06Q1089.91 149.65 1084.52 149.65Q1079.79 149.65 1077.54 151.48Q1075.30 153.31 1075.30 156.13Q1075.30 159.37 1077.38 160.90Q1079.45 162.44 1085.26 163.43Q1091.74 164.51 1095.39 166.17Q1099.04 167.83 1100.49 170.28Q1101.95 172.73 1101.95 176.21Q1101.95 182.27 1097.26 185.63Q1092.57 189 1085.26 189" fill="#fafafa"/><path d="M504.93 283L497.96 283L497.96 245.15L491.98 245.15L491.98 239.01L497.96 239.01L497.96 235.03Q497.96 230.13 500.78 227.10Q503.60 224.07 509.58 224.07L516.55 224.07L516.55 230.21L510.07 230.21Q507.50 230.21 506.21 231.62Q504.93 233.03 504.93 235.52L504.93 239.01L515.97 239.01L515.97 245.15L504.93 245.15L504.93 283M539.95 284Q533.89 284 529.33 281.17Q524.76 278.35 522.27 273.16Q519.78 267.98 519.78 261Q519.78 253.95 522.27 248.80Q524.76 243.66 529.33 240.84Q533.89 238.01 539.95 238.01Q546.01 238.01 550.54 240.84Q555.06 243.66 557.55 248.80Q560.04 253.95 560.04 261Q560.04 267.98 557.55 273.16Q555.06 278.35 550.54 281.17Q546.01 284 539.95 284M539.95 277.36Q546.01 277.36 549.37 273Q552.74 268.64 552.74 261Q552.74 253.37 549.37 249.01Q546.01 244.65 539.95 244.65Q533.89 244.65 530.49 249.01Q527.09 253.37 527.09 261Q527.09 268.64 530.49 273Q533.89 277.36 539.95 277.36M576.47 283L569.50 283L569.50 239.01L575.64 239.01L575.89 247.14Q578.13 239.01 586.35 239.01L590.67 239.01L590.67 245.65L586.43 245.65Q576.47 245.65 576.47 256.44L576.47 283M638.89 284Q632.75 284 628.22 281.17Q623.70 278.35 621.21 273.16Q618.72 267.98 618.72 261Q618.72 254.03 621.21 248.89Q623.70 243.74 628.22 240.88Q632.75 238.01 638.89 238.01Q646.53 238.01 651.51 241.96Q656.49 245.90 657.56 253.29L650.26 253.78Q649.51 249.38 646.44 247.02Q643.37 244.65 638.89 244.65Q632.83 244.65 629.43 249.01Q626.02 253.37 626.02 261Q626.02 268.64 629.43 273Q632.83 277.36 638.89 277.36Q643.37 277.36 646.44 274.87Q649.51 272.38 650.26 267.40L657.56 267.89Q656.49 275.20 651.51 279.60Q646.53 284 638.89 284M683.38 284Q677.32 284 672.75 281.17Q668.19 278.35 665.70 273.16Q663.21 267.98 663.21 261Q663.21 253.95 665.70 248.80Q668.19 243.66 672.75 240.84Q677.32 238.01 683.38 238.01Q689.44 238.01 693.96 240.84Q698.48 243.66 700.97 248.80Q703.46 253.95 703.46 261Q703.46 267.98 700.97 273.16Q698.48 278.35 693.96 281.17Q689.44 284 683.38 284M683.38 277.36Q689.44 277.36 692.80 273Q696.16 268.64 696.16 261Q696.16 253.37 692.80 249.01Q689.44 244.65 683.38 244.65Q677.32 244.65 673.92 249.01Q670.51 253.37 670.51 261Q670.51 268.64 673.92 273Q677.32 277.36 683.38 277.36M728.53 284Q722.80 284 718.61 281.17Q714.42 278.35 712.18 273.21Q709.94 268.06 709.94 261Q709.94 253.95 712.18 248.80Q714.42 243.66 718.61 240.84Q722.80 238.01 728.53 238.01Q732.93 238.01 736.58 239.88Q740.23 241.75 742.06 245.15L742.06 224.07L749.03 224.07L749.03 283L742.72 283L742.47 276.36Q740.65 279.93 736.91 281.96Q733.18 284 728.53 284M729.94 277.36Q735.83 277.36 738.95 272.96Q742.06 268.56 742.06 261Q742.06 253.37 738.95 249.01Q735.83 244.65 729.94 244.65Q724.13 244.65 720.69 249.01Q717.24 253.37 717.24 261Q717.24 268.56 720.69 272.96Q724.13 277.36 729.94 277.36M767.62 283L760.65 283L760.65 239.01L767.62 239.01L767.62 283M767.79 232.12L760.48 232.12L760.48 223.99L767.79 223.99L767.79 232.12M788.37 283L781.40 283L781.40 239.01L787.79 239.01L787.96 246.89Q789.70 242.33 793.31 240.17Q796.92 238.01 801.49 238.01Q806.55 238.01 809.83 240.25Q813.11 242.50 814.73 246.27Q816.34 250.05 816.34 254.70L816.34 283L809.37 283L809.37 256.69Q809.37 250.55 807.17 247.35Q804.97 244.16 799.99 244.16Q794.93 244.16 791.65 247.35Q788.37 250.55 788.37 256.69L788.37 283M845.31 296.45Q838.26 296.45 833.28 292.96Q828.30 289.47 826.88 283.66L834.19 283.17Q835.18 286.24 837.72 288.02Q840.25 289.81 845.31 289.81Q851.29 289.81 854.48 287.40Q857.68 284.99 857.68 280.18L857.68 273.04Q856.10 276.53 852.61 278.60Q849.13 280.68 844.81 280.68Q839.25 280.68 834.89 277.94Q830.54 275.20 828.09 270.38Q825.64 265.57 825.64 259.35Q825.64 253.04 828.05 248.26Q830.45 243.49 834.73 240.75Q839 238.01 844.48 238.01Q849.13 238.01 852.82 240.17Q856.52 242.33 858.01 245.98L858.01 239.01L864.65 239.01L864.65 280.01Q864.65 287.73 859.55 292.09Q854.44 296.45 845.31 296.45M845.14 274.04Q850.79 274.04 854.19 270.09Q857.59 266.15 857.68 259.35Q857.84 252.54 854.36 248.60Q850.87 244.65 845.14 244.65Q839.33 244.65 836.14 248.60Q832.94 252.54 832.94 259.35Q832.94 266.15 836.22 270.09Q839.50 274.04 845.14 274.04M910.55 284Q903.74 284 899.72 280.84Q895.69 277.69 895.69 272.04Q895.69 266.40 899.01 263.16Q902.33 259.93 909.55 258.60L925.16 255.69Q925.16 244.65 914.70 244.65Q910.13 244.65 907.48 246.69Q904.82 248.72 903.83 252.54L896.44 251.96Q897.68 245.73 902.46 241.87Q907.23 238.01 914.70 238.01Q923.16 238.01 927.65 242.79Q932.13 247.56 932.13 255.94L932.13 274.12Q932.13 276.86 934.45 276.86L936.20 276.86L936.20 283Q935.20 283.17 933.54 283.17Q929.72 283.17 927.77 281.63Q925.82 280.10 925.32 276.61L925.24 276.19Q923.58 279.60 919.51 281.80Q915.45 284 910.55 284M911.21 277.85Q917.85 277.85 921.50 274.12Q925.16 270.38 925.16 264.91L925.16 261.75L910.88 264.41Q906.40 265.24 904.70 266.94Q903 268.64 903 271.38Q903 274.45 905.20 276.15Q907.39 277.85 911.21 277.85M960.60 296.45Q953.54 296.45 948.56 292.96Q943.58 289.47 942.17 283.66L949.48 283.17Q950.47 286.24 953 288.02Q955.53 289.81 960.60 289.81Q966.57 289.81 969.77 287.40Q972.96 284.99 972.96 280.18L972.96 273.04Q971.39 276.53 967.90 278.60Q964.42 280.68 960.10 280.68Q954.54 280.68 950.18 277.94Q945.82 275.20 943.38 270.38Q940.93 265.57 940.93 259.35Q940.93 253.04 943.33 248.26Q945.74 243.49 950.02 240.75Q954.29 238.01 959.77 238.01Q964.42 238.01 968.11 240.17Q971.80 242.33 973.30 245.98L973.30 239.01L979.94 239.01L979.94 280.01Q979.94 287.73 974.83 292.09Q969.73 296.45 960.60 296.45M960.43 274.04Q966.08 274.04 969.48 270.09Q972.88 266.15 972.96 259.35Q973.13 252.54 969.64 248.60Q966.16 244.65 960.43 244.65Q954.62 244.65 951.43 248.60Q948.23 252.54 948.23 259.35Q948.23 266.15 951.51 270.09Q954.79 274.04 960.43 274.04M1009.57 284Q1003.34 284 998.82 281.17Q994.30 278.35 991.85 273.16Q989.40 267.98 989.40 261Q989.40 254.03 991.85 248.89Q994.30 243.74 998.74 240.88Q1003.18 238.01 1009.24 238.01Q1014.96 238.01 1019.36 240.71Q1023.76 243.41 1026.21 248.56Q1028.66 253.70 1028.66 261.09L1028.66 263.16L996.70 263.16Q997.12 270.22 1000.48 273.79Q1003.84 277.36 1009.57 277.36Q1013.88 277.36 1016.66 275.32Q1019.44 273.29 1020.52 269.97L1027.99 270.55Q1026.25 276.44 1021.40 280.22Q1016.54 284 1009.57 284M996.70 257.02L1021.02 257.02Q1020.52 250.63 1017.33 247.64Q1014.13 244.65 1009.24 244.65Q1004.17 244.65 1000.89 247.77Q997.62 250.88 996.70 257.02M1045.09 283L1038.12 283L1038.12 239.01L1044.51 239.01L1044.68 246.89Q1046.42 242.33 1050.03 240.17Q1053.64 238.01 1058.21 238.01Q1063.27 238.01 1066.55 240.25Q1069.83 242.50 1071.44 246.27Q1073.06 250.05 1073.06 254.70L1073.06 283L1066.09 283L1066.09 256.69Q1066.09 250.55 1063.89 247.35Q1061.69 244.16 1056.71 244.16Q1051.65 244.16 1048.37 247.35Q1045.09 250.55 1045.09 256.69L1045.09 283M1106.10 283L1099.12 283Q1093.15 283 1090.29 280.26Q1087.42 277.52 1087.42 271.71L1087.42 245.15L1080.95 245.15L1080.95 239.01L1087.42 239.01L1087.42 228.72L1094.39 228.72L1094.39 239.01L1106.10 239.01L1106.10 245.15L1094.39 245.15L1094.39 271.55Q1094.39 274.53 1095.72 275.70Q1097.05 276.86 1099.79 276.86L1106.10 276.86L1106.10 283M1130.25 284Q1121.20 284 1116.47 279.80Q1111.74 275.61 1111.24 269.14L1118.55 268.64Q1119.21 272.63 1121.83 274.99Q1124.44 277.36 1130.25 277.36Q1134.73 277.36 1137.18 275.90Q1139.63 274.45 1139.63 271.21Q1139.63 269.47 1138.84 268.31Q1138.05 267.15 1135.73 266.28Q1133.40 265.40 1128.92 264.57Q1122.78 263.41 1119.29 261.67Q1115.81 259.93 1114.40 257.44Q1112.99 254.95 1112.99 251.46Q1112.99 245.57 1117.34 241.79Q1121.70 238.01 1129.67 238.01Q1135.48 238.01 1139.17 240.05Q1142.87 242.08 1144.77 245.32Q1146.68 248.56 1147.10 252.12L1139.79 252.62Q1139.46 249.47 1137.18 247.06Q1134.90 244.65 1129.50 244.65Q1124.77 244.65 1122.53 246.48Q1120.29 248.31 1120.29 251.13Q1120.29 254.37 1122.36 255.90Q1124.44 257.44 1130.25 258.43Q1136.72 259.51 1140.38 261.17Q1144.03 262.83 1145.48 265.28Q1146.93 267.73 1146.93 271.21Q1146.93 277.27 1142.24 280.63Q1137.55 284 1130.25 284M1163.78 283L1154.40 283L1154.40 273.62L1163.78 273.62" fill="#a3a3a3"/><path d="M503.01 386.53Q499.88 386.53 497.50 385.06Q495.13 383.59 493.81 380.85Q492.49 378.11 492.49 374.32Q492.49 370.52 493.81 367.77Q495.13 365.01 497.50 363.53Q499.88 362.04 503.01 362.04Q507.27 362.04 509.61 364.19Q511.95 366.33 512.68 370.03L509.68 370.23Q509.18 367.72 507.57 366.27Q505.95 364.81 503.01 364.81Q500.77 364.81 499.07 365.95Q497.37 367.09 496.41 369.22Q495.45 371.35 495.45 374.32Q495.45 377.29 496.41 379.40Q497.37 381.51 499.07 382.63Q500.77 383.76 503.01 383.76Q506.08 383.76 507.76 382.16Q509.45 380.56 509.88 377.82L512.88 378.01Q512.45 380.56 511.20 382.47Q509.94 384.38 507.88 385.46Q505.82 386.53 503.01 386.53M519.68 386L516.90 386L516.90 368.51L519.68 368.51L519.68 386M519.74 365.77L516.84 365.77L516.84 362.54L519.74 362.54L519.74 365.77M527.93 386L525.15 386L525.15 368.51L527.60 368.51L527.70 371.74Q528.59 368.51 531.85 368.51L533.57 368.51L533.57 371.15L531.89 371.15Q527.93 371.15 527.93 375.44L527.93 386M543.17 386.40Q540.73 386.40 538.93 385.27Q537.13 384.15 536.14 382.09Q535.15 380.03 535.15 377.25Q535.15 374.48 536.14 372.44Q537.13 370.39 538.93 369.25Q540.73 368.11 543.17 368.11Q546.21 368.11 548.19 369.68Q550.17 371.25 550.60 374.19L547.69 374.38Q547.40 372.63 546.18 371.69Q544.95 370.75 543.17 370.75Q540.76 370.75 539.41 372.49Q538.06 374.22 538.06 377.25Q538.06 380.29 539.41 382.02Q540.76 383.76 543.17 383.76Q544.95 383.76 546.18 382.77Q547.40 381.78 547.69 379.80L550.60 379.99Q550.17 382.90 548.19 384.65Q546.21 386.40 543.17 386.40M559.77 386.40Q557.16 386.40 555.60 384.63Q554.03 382.87 554.03 379.76L554.03 368.51L556.80 368.51L556.80 379Q556.80 381.55 557.71 382.75Q558.62 383.95 560.50 383.95Q562.58 383.95 563.76 382.62Q564.95 381.28 564.95 378.94L564.95 368.51L567.72 368.51L567.72 386L565.08 386L565.08 383.16Q563.63 386.40 559.77 386.40M575.28 386L572.51 386L572.51 368.51L575.28 368.51L575.28 386M575.35 365.77L572.44 365.77L572.44 362.54L575.35 362.54L575.35 365.77M588.42 386L585.64 386Q583.27 386 582.13 384.91Q580.99 383.82 580.99 381.51L580.99 370.95L578.42 370.95L578.42 368.51L580.99 368.51L580.99 364.42L583.76 364.42L583.76 368.51L588.42 368.51L588.42 370.95L583.76 370.95L583.76 381.45Q583.76 382.63 584.29 383.10Q584.82 383.56 585.91 383.56L588.42 383.56L588.42 386M595.41 386L592.57 386L592.57 362.57L595.41 362.57L595.41 374.22L605.94 362.57L609.54 362.57L600.36 372.73L610.16 386L606.70 386L598.45 374.85L595.41 378.18L595.41 386M615.74 386L612.97 386L612.97 368.51L615.74 368.51L615.74 386M615.81 365.77L612.90 365.77L612.90 362.54L615.81 362.54L615.81 365.77M628.87 386L626.10 386Q623.73 386 622.59 384.91Q621.45 383.82 621.45 381.51L621.45 370.95L618.87 370.95L618.87 368.51L621.45 368.51L621.45 364.42L624.22 364.42L624.22 368.51L628.87 368.51L628.87 370.95L624.22 370.95L624.22 381.45Q624.22 382.63 624.75 383.10Q625.28 383.56 626.37 383.56L628.87 383.56" fill="#fafafa"/><path d="M990.59 382.25Q989.04 382.25 987.88 381.54Q986.73 380.82 986.10 379.51Q985.47 378.20 985.47 376.44Q985.47 374.67 986.10 373.37Q986.73 372.07 987.88 371.34Q989.04 370.62 990.59 370.62Q992.46 370.62 993.69 371.62Q994.92 372.61 995.26 374.48L993.41 374.61Q993.16 373.50 992.41 372.90Q991.66 372.30 990.59 372.30Q989.06 372.30 988.19 373.40Q987.32 374.50 987.32 376.44Q987.32 378.37 988.19 379.47Q989.06 380.57 990.59 380.57Q991.66 380.57 992.45 379.94Q993.24 379.31 993.49 378.05L995.34 378.18Q995 380.03 993.73 381.14Q992.46 382.25 990.59 382.25M1008.36 382L998.28 382L998.28 380.45L1002.75 380.45L1002.75 372.42L998.49 372.42L998.49 370.87L1004.52 370.87L1004.52 380.45L1008.36 380.45L1008.36 382M1004.43 369.13L1002.59 369.13L1002.59 367.07L1004.43 367.07L1004.43 369.13M1019.28 382L1011.09 382L1011.09 380.45L1013.99 380.45L1013.99 372.42L1011.09 372.42L1011.09 370.87L1015.46 370.87L1015.58 373.03Q1016.11 370.87 1018.25 370.87L1020.54 370.87L1020.54 372.47L1018.27 372.47Q1017.05 372.47 1016.40 373.19Q1015.75 373.92 1015.75 375.28L1015.75 380.45L1019.28 380.45L1019.28 382M1028.39 382.25Q1026.84 382.25 1025.69 381.54Q1024.53 380.82 1023.90 379.51Q1023.27 378.20 1023.27 376.44Q1023.27 374.67 1023.90 373.37Q1024.53 372.07 1025.69 371.34Q1026.84 370.62 1028.39 370.62Q1030.26 370.62 1031.49 371.62Q1032.72 372.61 1033.06 374.48L1031.21 374.61Q1030.96 373.50 1030.21 372.90Q1029.47 372.30 1028.39 372.30Q1026.86 372.30 1025.99 373.40Q1025.12 374.50 1025.12 376.44Q1025.12 378.37 1025.99 379.47Q1026.86 380.57 1028.39 380.57Q1029.47 380.57 1030.25 379.94Q1031.04 379.31 1031.29 378.05L1033.14 378.18Q1032.80 380.03 1031.53 381.14Q1030.26 382.25 1028.39 382.25M1039.92 382.25Q1038.26 382.25 1037.28 381.13Q1036.29 380 1036.29 378.03L1036.29 370.87L1038.05 370.87L1038.05 377.55Q1038.05 379.17 1038.63 379.93Q1039.21 380.70 1040.41 380.70Q1041.71 380.70 1042.46 379.85Q1043.22 379 1043.22 377.51L1043.22 370.87L1044.98 370.87L1044.98 382L1043.30 382L1043.30 380.19Q1042.38 382.25 1039.92 382.25M1058.76 382L1048.68 382L1048.68 380.45L1053.15 380.45L1053.15 372.42L1048.89 372.42L1048.89 370.87L1054.92 370.87L1054.92 380.45L1058.76 380.45L1058.76 382M1054.83 369.13L1052.98 369.13L1052.98 367.07L1054.83 367.07L1054.83 369.13M1070.52 382L1067.54 382Q1064.32 382 1064.32 378.93L1064.32 372.42L1060.65 372.42L1060.65 370.87L1064.32 370.87L1064.32 368.27L1066.09 368.27L1066.09 370.87L1070.52 370.87L1070.52 372.42L1066.09 372.42L1066.09 378.93Q1066.09 380.45 1067.54 380.45L1070.52 380.45L1070.52 382M1075.85 382L1074.09 382L1074.09 367.09L1075.85 367.09L1075.85 376.86L1081.27 370.87L1083.62 370.87L1079.23 375.60L1083.83 382L1081.69 382L1078.04 376.79L1075.85 379.10L1075.85 382M1096.56 382L1086.48 382L1086.48 380.45L1090.95 380.45L1090.95 372.42L1086.69 372.42L1086.69 370.87L1092.72 370.87L1092.72 380.45L1096.56 380.45L1096.56 382M1092.63 369.13L1090.78 369.13L1090.78 367.07L1092.63 367.07L1092.63 369.13M1108.32 382L1105.34 382Q1102.12 382 1102.12 378.93L1102.12 372.42L1098.45 372.42L1098.45 370.87L1102.12 370.87L1102.12 368.27L1103.89 368.27L1103.89 370.87L1108.32 370.87L1108.32 372.42L1103.89 372.42L1103.89 378.93Q1103.89 380.45 1105.34 380.45L1108.32 380.45L1108.32 382M1117.60 382L1115 382L1115 379.44L1117.60 379.44L1117.60 382M1129.19 382.25Q1127.64 382.25 1126.48 381.54Q1125.33 380.82 1124.70 379.51Q1124.07 378.20 1124.07 376.44Q1124.07 374.67 1124.70 373.37Q1125.33 372.07 1126.48 371.34Q1127.64 370.62 1129.19 370.62Q1131.06 370.62 1132.29 371.62Q1133.52 372.61 1133.86 374.48L1132.01 374.61Q1131.76 373.50 1131.01 372.90Q1130.26 372.30 1129.19 372.30Q1127.66 372.30 1126.79 373.40Q1125.92 374.50 1125.92 376.44Q1125.92 378.37 1126.79 379.47Q1127.66 380.57 1129.19 380.57Q1130.26 380.57 1131.05 379.94Q1131.84 379.31 1132.09 378.05L1133.94 378.18Q1133.60 380.03 1132.33 381.14Q1131.06 382.25 1129.19 382.25M1145.28 382L1137.09 382L1137.09 380.45L1139.99 380.45L1139.99 372.42L1137.09 372.42L1137.09 370.87L1141.46 370.87L1141.58 373.03Q1142.11 370.87 1144.25 370.87L1146.54 370.87L1146.54 372.47L1144.27 372.47Q1143.05 372.47 1142.40 373.19Q1141.75 373.92 1141.75 375.28L1141.75 380.45L1145.28 380.45L1145.28 382M1152.63 382.25Q1151.58 382.25 1150.74 381.87Q1149.90 381.50 1149.42 380.81Q1148.93 380.13 1148.93 379.23Q1148.93 377.80 1149.78 377.01Q1150.63 376.23 1152.46 375.87L1156.20 375.11Q1156.20 373.68 1155.56 372.99Q1154.92 372.30 1153.72 372.30Q1152.57 372.30 1151.92 372.81Q1151.26 373.33 1151.01 374.29L1149.14 374.15Q1149.46 372.57 1150.65 371.59Q1151.83 370.62 1153.72 370.62Q1155.74 370.62 1156.85 371.83Q1157.96 373.03 1157.96 375.15L1157.96 379.77Q1157.96 380.15 1158.13 380.30Q1158.30 380.45 1158.64 380.45L1159.35 380.45L1159.35 382Q1159.01 382.04 1158.43 382.04Q1157.54 382.04 1157.01 381.69Q1156.47 381.33 1156.28 380.53L1156.26 380.43Q1155.82 381.24 1154.82 381.75Q1153.83 382.25 1152.63 382.25M1152.80 380.70Q1154.50 380.70 1155.35 379.84Q1156.20 378.98 1156.20 377.59L1156.20 376.62L1152.80 377.30Q1151.66 377.51 1151.22 377.94Q1150.78 378.37 1150.78 379.06Q1150.78 379.84 1151.32 380.27Q1151.85 380.70 1152.80 380.70M1166.62 382L1164.85 382L1164.85 372.42L1161.87 372.42L1161.87 370.87L1164.85 370.87L1164.85 370.16Q1164.85 368.67 1165.62 367.88Q1166.38 367.09 1167.96 367.09L1171.53 367.09L1171.53 368.64L1167.96 368.64Q1167.31 368.64 1166.96 369.05Q1166.62 369.46 1166.62 370.16L1166.62 370.87L1171.32 370.87L1171.32 372.42L1166.62 372.42L1166.62 382M1183.92 382L1180.94 382Q1177.72 382 1177.72 378.93L1177.72 372.42L1174.05 372.42L1174.05 370.87L1177.72 370.87L1177.72 368.27L1179.49 368.27L1179.49 370.87L1183.92 370.87L1183.92 372.42L1179.49 372.42L1179.49 378.93Q1179.49 380.45 1180.94 380.45L1183.92 380.45L1183.92 382M1192.03 382.25Q1190.45 382.25 1189.31 381.54Q1188.16 380.82 1187.54 379.51Q1186.92 378.20 1186.92 376.44Q1186.92 374.67 1187.54 373.37Q1188.16 372.07 1189.29 371.34Q1190.41 370.62 1191.94 370.62Q1193.39 370.62 1194.50 371.30Q1195.62 371.98 1196.25 373.29Q1196.88 374.59 1196.88 376.46L1196.88 376.98L1188.77 376.98Q1188.88 378.77 1189.73 379.67Q1190.58 380.57 1192.03 380.57Q1193.12 380.57 1193.82 380.06Q1194.52 379.54 1194.80 378.70L1196.69 378.85Q1196.25 380.34 1195.02 381.30Q1193.79 382.25 1192.03 382.25M1188.77 375.43L1194.94 375.43Q1194.82 373.81 1194 373.05Q1193.18 372.30 1191.94 372.30Q1190.66 372.30 1189.83 373.09Q1189 373.87 1188.77 375.43M1208.28 382L1200.09 382L1200.09 380.45L1202.99 380.45L1202.99 372.42L1200.09 372.42L1200.09 370.87L1204.46 370.87L1204.58 373.03Q1205.11 370.87 1207.25 370.87L1209.54 370.87L1209.54 372.47L1207.27 372.47Q1206.05 372.47 1205.40 373.19Q1204.75 373.92 1204.75 375.28L1204.75 380.45L1208.28 380.45L1208.28 382M1218.40 382L1215.80 382L1215.80 379.44L1218.40 379.44L1218.40 382M1235.16 382L1225.08 382L1225.08 380.45L1229.55 380.45L1229.55 372.42L1225.29 372.42L1225.29 370.87L1231.32 370.87L1231.32 380.45L1235.16 380.45L1235.16 382M1231.23 369.13L1229.38 369.13L1229.38 367.07L1231.23 367.07L1231.23 369.13M1239.53 382L1237.76 382L1237.76 370.87L1239.38 370.87L1239.42 372.87Q1239.86 371.73 1240.84 371.17Q1241.82 370.62 1242.97 370.62Q1244.25 370.62 1245.10 371.19Q1245.95 371.75 1246.39 372.71Q1246.84 373.66 1246.84 374.84L1246.84 382L1245.07 382L1245.07 375.34Q1245.07 373.79 1244.46 372.98Q1243.85 372.17 1242.59 372.17Q1241.31 372.17 1240.42 372.98Q1239.53 373.79 1239.53 375.34L1239.53 382M1254.84 385.40Q1253.05 385.40 1251.79 384.52Q1250.53 383.64 1250.17 382.17L1252.02 382.04Q1252.27 382.82 1252.92 383.27Q1253.56 383.72 1254.84 383.72Q1256.35 383.72 1257.16 383.11Q1257.97 382.50 1257.97 381.29L1257.97 379.48Q1257.57 380.36 1256.68 380.89Q1255.80 381.41 1254.71 381.41Q1253.30 381.41 1252.20 380.72Q1251.10 380.03 1250.48 378.81Q1249.86 377.59 1249.86 376.01Q1249.86 374.42 1250.47 373.21Q1251.08 372 1252.16 371.31Q1253.24 370.62 1254.63 370.62Q1255.80 370.62 1256.74 371.16Q1257.67 371.71 1258.05 372.63L1258.05 370.87L1259.73 370.87L1259.73 381.24Q1259.73 383.20 1258.44 384.30Q1257.15 385.40 1254.84 385.40M1254.79 379.73Q1256.22 379.73 1257.08 378.73Q1257.94 377.74 1257.97 376.01Q1258.01 374.29 1257.13 373.30Q1256.24 372.30 1254.79 372.30Q1253.32 372.30 1252.52 373.30Q1251.71 374.29 1251.71 376.01Q1251.71 377.74 1252.54 378.73Q1253.37 379.73 1254.79 379.73" fill="#a3a3a3"/></svg>
